<svg width="12" height="12" viewBox="0 0 12 12" fill="none" xmlns="http://www.w3.org/2000/svg">
<path d="M11.2446 0.767395V0.766418C11.2595 0.781371 11.2627 0.804178 11.2553 0.823059L11.2446 0.840637L6.59711 5.50079L6.06879 6.03009L6.59711 6.55939L11.1821 11.158C11.2021 11.1781 11.2021 11.213 11.1821 11.2332C11.163 11.2523 11.1323 11.2519 11.1137 11.2332L6.52875 6.63458L5.99847 6.10138L5.46722 6.63458L0.886169 11.2303C0.867284 11.2492 0.836695 11.2492 0.81781 11.2303H0.818787C0.798606 11.21 0.79778 11.1762 0.81781 11.1561H0.818787L5.39984 6.56036L5.92719 6.03107L5.39886 5.50177L0.75531 0.843567C0.735552 0.823526 0.734746 0.788532 0.754333 0.768372L0.75531 0.769348C0.77396 0.750664 0.803738 0.749853 0.822693 0.768372L5.46722 5.42657L5.99847 5.95978L6.52875 5.42755L11.1762 0.767395V0.766418C11.1949 0.747664 11.2255 0.748305 11.2446 0.767395Z" stroke="#141B34" stroke-width="1.5"/>
</svg>
