<svg width="12" height="12" viewBox="0 0 12 12" fill="none" xmlns="http://www.w3.org/2000/svg">
<path fill-rule="evenodd" clip-rule="evenodd" d="M11.2119 0.090332C11.647 0.0903321 11.9999 0.443341 12 0.878418L11.999 0.884277C11.999 0.886411 12 0.888975 12 0.891113V11.1099L11.999 11.1157L12 11.1216C12 11.5568 11.6471 11.9097 11.2119 11.9097H0.788086C0.352911 11.9097 -1.93128e-08 11.5568 0 11.1216V0.878418C0.000113638 0.44334 0.352981 0.0903319 0.788086 0.090332H11.2119ZM1.59961 3.84033H7.2002C7.21693 3.84034 7.23352 3.84127 7.25 3.84229C7.26648 3.84127 7.28307 3.84034 7.2998 3.84033C7.74157 3.84033 8.0995 4.1984 8.09961 4.64014V10.3345H10.4004V1.6665H1.59961V3.84033ZM1.59961 10.3345H6.5V5.43994H1.59961V10.3345Z" fill="#141B34"/>
</svg>
