<svg width="26" height="24" viewBox="0 0 26 24" fill="none" xmlns="http://www.w3.org/2000/svg">
<path d="M16.7895 2C17.3418 2 17.7895 1.55228 17.7895 1C17.7895 0.447715 17.3418 0 16.7895 0V1V2ZM2.75736 2.61091L2.08163 1.87375L2.08163 1.87376L2.75736 2.61091ZM2.75736 21.3891L2.08162 22.1263L2.08164 22.1263L2.75736 21.3891ZM23.2427 21.3891L23.9184 22.1263L23.9184 22.1263L23.2427 21.3891ZM26 9.68421C26 9.13193 25.5523 8.68421 25 8.68421C24.4477 8.68421 24 9.13193 24 9.68421H25H26ZM9.25467 8.94706C8.84755 8.57386 8.21499 8.60137 7.84179 9.00849C7.4686 9.4156 7.4961 10.0482 7.90322 10.4214L8.57895 9.68421L9.25467 8.94706ZM13 13.7368L12.3243 14.474C12.7216 14.8382 13.336 14.822 13.7136 14.4374L13 13.7368ZM25.0822 2.85849C25.4692 2.46441 25.4634 1.83127 25.0693 1.44434C24.6752 1.05741 24.042 1.06321 23.6551 1.4573L24.3687 2.15789L25.0822 2.85849ZM16.7895 1V0H13V1V2H16.7895V1ZM13 1V0C10.1975 0 8.00339 -0.00178984 6.29406 0.208873C4.56423 0.42206 3.17932 0.867543 2.08163 1.87375L2.75736 2.61091L3.43308 3.34807C4.09276 2.74337 5.00074 2.38339 6.53869 2.19385C8.09712 2.00179 10.1456 2 13 2V1ZM2.75736 2.61091L2.08163 1.87376C0.971544 2.89134 0.468649 4.19449 0.230255 5.81989C-0.0025186 7.40696 0 9.43804 0 12H1H2C2 9.37652 2.00252 7.51851 2.20908 6.11012C2.41003 4.74007 2.78581 3.9414 3.43308 3.34806L2.75736 2.61091ZM1 12H0C0 14.5619 -0.00251855 16.593 0.230255 18.1801C0.468649 19.8055 0.971541 21.1087 2.08162 22.1263L2.75736 21.3891L3.4331 20.652C2.78581 20.0586 2.41003 19.2599 2.20908 17.8899C2.00252 16.4815 2 14.6235 2 12H1ZM2.75736 21.3891L2.08164 22.1263C3.17934 23.1325 4.56424 23.578 6.29406 23.7911C8.00339 24.0018 10.1975 24 13 24V23V22C10.1456 22 8.09712 21.9982 6.53869 21.8062C5.00073 21.6166 4.09274 21.2567 3.43307 20.652L2.75736 21.3891ZM13 23V24C15.8024 24 17.9966 24.0018 19.7059 23.7911C21.4357 23.578 22.8207 23.1325 23.9184 22.1263L23.2427 21.3891L22.567 20.652C21.9073 21.2567 20.9993 21.6166 19.4613 21.8062C17.9029 21.9982 15.8544 22 13 22V23ZM23.2427 21.3891L23.9184 22.1263C25.0285 21.1087 25.5314 19.8055 25.7698 18.1801C26.0025 16.593 26 14.5619 26 12H25H24C24 14.6235 23.9975 16.4815 23.7909 17.8899C23.59 19.2599 23.2142 20.0586 22.5669 20.652L23.2427 21.3891ZM25 12H26V9.68421H25H24V12H25ZM8.57895 9.68421L7.90322 10.4214L12.3243 14.474L13 13.7368L13.6757 12.9997L9.25467 8.94706L8.57895 9.68421ZM13 13.7368L13.7136 14.4374L25.0822 2.85849L24.3687 2.15789L23.6551 1.4573L12.2864 13.0362L13 13.7368Z" fill="#141B34"/>
</svg>
