<svg width="28" height="24" viewBox="0 0 28 24" fill="none" xmlns="http://www.w3.org/2000/svg">
<path d="M9.2 6.16667H19.7C22.228 6.16667 23.492 6.16667 24.4 6.75652C24.7932 7.01188 25.1306 7.34001 25.3933 7.72217C26 8.60495 26 9.83385 26 12.2917C26 16.3881 26 18.4362 24.9888 19.9076C24.5511 20.5444 23.9886 21.0914 23.3335 21.5169C21.82 22.5 19.7134 22.5 15.5 22.5H14C8.34314 22.5 5.51472 22.5 3.75736 20.7914C2 19.0829 2 16.333 2 10.8333V7.26832C2 5.1491 2 4.08949 2.45638 3.2944C2.7817 2.72765 3.26272 2.25999 3.84567 1.94371C4.66347 1.5 5.75336 1.5 7.93312 1.5C9.32962 1.5 10.0279 1.5 10.6391 1.72285C12.0346 2.23164 12.6102 3.46418 13.2399 4.68865L14 6.16667" stroke="#141B34" stroke-width="2.5" stroke-linecap="round"/>
</svg>
