<svg width="28" height="26" viewBox="0 0 28 26" fill="none" xmlns="http://www.w3.org/2000/svg">
<path d="M2 21.5556V7.55991C2 5.7952 2 4.91282 2.29198 4.22013C2.65604 3.35648 3.33182 2.66819 4.17976 2.29739C4.85986 2 5.71766 2 7.45882 2H8.05173C8.77782 2 9.4649 2.33482 9.92049 2.91067L12.101 5.66667M12.101 5.66667H18.8C20.4801 5.66667 21.3202 5.66667 21.962 5.9997C22.5265 6.29265 22.9854 6.76009 23.273 7.33502C23.6 7.98864 23.6 8.84429 23.6 10.5556V11.7778M12.101 5.66667H8M3.38962 17.2954L3.74772 16.3876C4.62835 14.1549 5.06867 13.0386 5.98688 12.4082C6.90508 11.7778 8.09068 11.7778 10.4619 11.7778H20.1343C23.3605 11.7778 24.9735 11.7778 25.6906 12.8517C26.4076 13.9258 25.8086 15.4447 24.6104 18.4824L24.2523 19.3901C23.3716 21.6229 22.9314 22.7392 22.0131 23.3696C21.0949 24 19.9093 24 17.5381 24H7.86574C4.63953 24 3.02642 24 2.30938 22.926C1.59235 21.8519 2.19144 20.3331 3.38962 17.2954Z" stroke="#141B34" stroke-width="2.5" stroke-linecap="round" stroke-linejoin="round"/>
</svg>
