<svg xmlns="http://www.w3.org/2000/svg" style="display: none;">


    <!-- 사이드바 접기/펼치기 -->
    <symbol id="icon-ArrowLeftDouble" viewBox="0 0 24 24">
        <path d="M11.5 18C11.5 18 5.50001 13.5811 5.5 12C5.49999 10.4188 11.5 6 11.5 6"
            stroke="currentColor" stroke-linecap="round" stroke-linejoin="round"></path>
        <path d="M18.5 18C18.5 18 12.5 13.5811 12.5 12C12.5 10.4188 18.5 6 18.5 6"
            stroke="currentColor" stroke-linecap="round" stroke-linejoin="round"></path>
    </symbol>

    <!-- 전체 보관함 -->
    <symbol id="icon-inbox" viewBox="0 0 24 24">
        <path
            d="M2.5 12C2.5 7.52166 2.5 5.28249 3.89124 3.89124C5.28249 2.5 7.52166 2.5 12 2.5C16.4783 2.5 18.7175 2.5 20.1088 3.89124C21.5 5.28249 21.5 7.52166 21.5 12C21.5 16.4783 21.5 18.7175 20.1088 20.1088C18.7175 21.5 16.4783 21.5 12 21.5C7.52166 21.5 5.28249 21.5 3.89124 20.1088C2.5 18.7175 2.5 16.4783 2.5 12Z"
            stroke="currentColor" stroke-linecap="round" stroke-linejoin="round"></path>
        <path
            d="M21.5 13.5H16.5743C15.7322 13.5 15.0706 14.2036 14.6995 14.9472C14.2963 15.7551 13.4889 16.5 12 16.5C10.5111 16.5 9.70373 15.7551 9.30054 14.9472C8.92942 14.2036 8.26777 13.5 7.42566 13.5H2.5"
            stroke="currentColor" stroke-linecap="round" stroke-linejoin="round"></path>
    </symbol>

    <!-- 오늘 할 일 -->
    <symbol id="icon-today" viewBox="0 0 24 24">
        <path d="M16 2V6M8 2V6" stroke="currentColor" stroke-linecap="round" stroke-linejoin="round" />
        <path
            d="M13 4H11C7.22876 4 5.34315 4 4.17157 5.17157C3 6.34315 3 8.22876 3 12V14C3 17.7712 3 19.6569 4.17157 20.8284C5.34315 22 7.22876 22 11 22H13C16.7712 22 18.6569 22 19.8284 20.8284C21 19.6569 21 17.7712 21 14V12C21 8.22876 21 6.34315 19.8284 5.17157C18.6569 4 16.7712 4 13 4Z"
            stroke="currentColor" stroke-linecap="round" stroke-linejoin="round"></path>

        <path
            d="M10 18.5002L9.99999 13.8474C9.99999 13.6557 9.86325 13.5002 9.69458 13.5002H9M14 18.4983L15.4855 13.8923C15.4951 13.8626 15.5 13.8315 15.5 13.8002C15.5 13.6346 15.3657 13.5002 15.2 13.5002L13 13.5"
            stroke="currentColor" stroke-linecap="round" stroke-linejoin="round"></path>
    </symbol>

    <!-- 중요 -->
    <symbol id="icon-star" viewBox="0 0 24 24">
        <path
            d="M13.7276 3.44418L15.4874 6.99288C15.7274 7.48687 16.3673 7.9607 16.9073 8.05143L20.0969 8.58575C22.1367 8.92853 22.6167 10.4206 21.1468 11.8925L18.6671 14.3927C18.2471 14.8161 18.0172 15.6327 18.1471 16.2175L18.8571 19.3125C19.417 21.7623 18.1271 22.71 15.9774 21.4296L12.9877 19.6452C12.4478 19.3226 11.5579 19.3226 11.0079 19.6452L8.01827 21.4296C5.8785 22.71 4.57865 21.7522 5.13859 19.3125L5.84851 16.2175C5.97849 15.6327 5.74852 14.8161 5.32856 14.3927L2.84884 11.8925C1.389 10.4206 1.85895 8.92853 3.89872 8.58575L7.08837 8.05143C7.61831 7.9607 8.25824 7.48687 8.49821 6.99288L10.258 3.44418C11.2179 1.51861 12.7777 1.51861 13.7276 3.44418Z"
            stroke="currentColor" stroke-linecap="round" stroke-linejoin="round"></path>
    </symbol>

    <!-- 완료됨 -->
    <symbol id="icon-done" viewBox="0 0 24 24">
        <path
            d="M15 2.4578C14.053 2.16035 13.0452 2 12 2C6.47715 2 2 6.47715 2 12C2 17.5228 6.47715 22 12 22C17.5228 22 22 17.5228 22 12C22 10.9548 21.8396 9.94704 21.5422 9"
            stroke="currentColor" stroke-linecap="round" stroke-linejoin="round"></path>
        <path d="M8.5 9.5L12 13L21.0002 3" stroke="currentColor" stroke-linecap="round"
            stroke-linejoin="round"></path>
    </symbol>

    <!-- 그룹(닫힘) -->
    <symbol id="icon-folder-closed" viewBox="0 0 24 24">
        <path
            d="M8 7H16.75C18.8567 7 19.91 7 20.6667 7.50559C20.9943 7.72447 21.2755 8.00572 21.4944 8.33329C22 9.08996 22 10.1433 22 12.25C22 15.7612 22 17.5167 21.1573 18.7779C20.7926 19.3238 20.3238 19.7926 19.7779 20.1573C18.5167 21 16.7612 21 13.25 21H12C7.28595 21 4.92893 21 3.46447 19.5355C2 18.0711 2 15.714 2 11V7.94427C2 6.1278 2 5.21956 2.38032 4.53806C2.65142 4.05227 3.05227 3.65142 3.53806 3.38032C4.21956 3 5.1278 3 6.94427 3C8.10802 3 8.6899 3 9.19926 3.19101C10.3622 3.62712 10.8418 4.68358 11.3666 5.73313L12 7"
            stroke="currentColor" stroke-linecap="round" stroke-linejoin="round"></path>
    </symbol>

    <!-- 그룹(열림) -->
    <symbol id="icon-folder-open" viewBox="0 0 24 24">
        <path
            d="M2 19V7.54902C2 6.10516 2 5.38322 2.24332 4.81647C2.5467 4.10985 3.10985 3.5467 3.81647 3.24332C4.38322 3 5.09805 3 6.54902 3H7.04311C7.64819 3 8.22075 3.27394 8.60041 3.74509L10.4175 6M10.4175 6H16C17.4001 6 18.1002 6 18.635 6.27248C19.1054 6.51217 19.4878 6.89462 19.7275 7.36502C20 7.8998 20 8.59987 20 10V11M10.4175 6H7"
            stroke="currentColor" stroke-linecap="round" stroke-linejoin="round"></path>
        <path
            d="M3.15802 15.5144L3.45643 14.7717C4.19029 12.9449 4.55723 12.0316 5.3224 11.5158C6.08757 11 7.07557 11 9.05157 11H17.1119C19.8004 11 21.1446 11 21.7422 11.8787C22.3397 12.7575 21.8405 14.0002 20.842 16.4856L20.5436 17.2283C19.8097 19.0551 19.4428 19.9684 18.6776 20.4842C17.9124 21 16.9244 21 14.9484 21H6.88812C4.19961 21 2.85535 21 2.25782 20.1213C1.66029 19.2425 2.15953 17.9998 3.15802 15.5144Z"
            stroke="currentColor" stroke-linecap="round" stroke-linejoin="round"></path>
    </symbol>

    <!-- 그룹 추가 -->
    <symbol id="icon-add-group" viewBox="0 0 24 24">
        <path
            d="M13 21H12C7.28595 21 4.92893 21 3.46447 19.5355C2 18.0711 2 15.714 2 11V7.94427C2 6.1278 2 5.21956 2.38032 4.53806C2.65142 4.05227 3.05227 3.65142 3.53806 3.38032C4.21956 3 5.1278 3 6.94427 3C8.10802 3 8.6899 3 9.19926 3.19101C10.3622 3.62712 10.8418 4.68358 11.3666 5.73313L12 7M8 7H16.75C18.8567 7 19.91 7 20.6667 7.50559C20.9943 7.72447 21.2755 8.00572 21.4944 8.33329C21.9796 9.05942 21.9992 10.0588 22 12"
            stroke="currentColor" stroke-linecap="round" stroke-linejoin="round"></path>
        <path d="M18 13V21M22 17H14"
            stroke="currentColor" stroke-linecap="round" stroke-linejoin="round"></path>
    </symbol>

    <!-- 프로젝트 추가 -->
    <symbol id="icon-add-project" viewBox="0 0 24 24">
        <path d="M12.001 5.00003V19.002" stroke="currentColor" stroke-linecap="round"
            stroke-linejoin="round"></path>
        <path d="M19.002 12.002L4.99998 12.002" stroke="currentColor" stroke-linecap="round"
            stroke-linejoin="round"></path>
    </symbol>

    <!-- 그룹 열기/닫기 -->
    <symbol id="icon-down" viewBox="0 0 24 24">
        <path d="M18 9.00005C18 9.00005 13.5811 15 12 15C10.4188 15 6 9 6 9" stroke="currentColor"
            stroke-linecap="round"
            stroke-linejoin="round"></path>
    </symbol>

    <!-- 수정 -->
    <symbol id="icon-edit" viewBox="0 0 24 24">
    <path d="M8.17151 19.8284L19.8284 8.17157C20.3736 7.62632 20.6462 7.3537 20.792 7.0596C21.0693 6.50005 21.0693 5.8431 20.792 5.28354C20.6462 4.98945 20.3736 4.71682 19.8284 4.17157C19.2831 3.62632 19.0105 3.3537 18.7164 3.20796C18.1568 2.93068 17.4999 2.93068 16.9403 3.20796C16.6462 3.3537 16.3736 3.62632 15.8284 4.17157L4.17151 15.8284C3.59345 16.4064 3.30442 16.6955 3.15218 17.063C2.99994 17.4305 2.99994 17.8393 2.99994 18.6568V20.9999H5.34308C6.16059 20.9999 6.56934 20.9999 6.93688 20.8477C7.30442 20.6955 7.59345 20.4064 8.17151 19.8284Z" stroke="#141B34" stroke-width="1.5" stroke-linecap="round" stroke-linejoin="round" />
    <path d="M12 21H18" stroke="currentColor"
            stroke-linecap="round"
            stroke-linejoin="round"></path>
    <path d="M14.5 5.5L18.5 9.5" stroke="currentColor"
            stroke-linecap="round"
            stroke-linejoin="round"></path>
    </symbol>

    <!-- 삭제 -->
    <symbol id="icon-delete" viewBox="0 0 24 24">
    <path d="M19.5 5.5L18.8803 15.5251C18.7219 18.0864 18.6428 19.3671 18.0008 20.2879C17.6833 20.7431 17.2747 21.1273 16.8007 21.416C15.8421 22 14.559 22 11.9927 22C9.42312 22 8.1383 22 7.17905 21.4149C6.7048 21.1257 6.296 20.7408 5.97868 20.2848C5.33688 19.3626 5.25945 18.0801 5.10461 15.5152L4.5 5.5" stroke="currentColor"
            stroke-linecap="round"
            stroke-linejoin="round"></path>
    <path d="M3 5.5H21M16.0557 5.5L15.3731 4.09173C14.9196 3.15626 14.6928 2.68852 14.3017 2.39681C14.215 2.3321 14.1231 2.27454 14.027 2.2247C13.5939 2 13.0741 2 12.0345 2C10.9688 2 10.436 2 9.99568 2.23412C9.8981 2.28601 9.80498 2.3459 9.71729 2.41317C9.32164 2.7167 9.10063 3.20155 8.65861 4.17126L8.05292 5.5" stroke="currentColor"
            stroke-linecap="round"
            stroke-linejoin="round"></path>
    </symbol>

</svg>