<svg xmlns="http://www.w3.org/2000/svg" style="display: none;">

    <!-- 사이드바 버튼 -->
    <symbol id="icon-menu" viewBox="0 0 24 24">
        <path d="M4 5L20 5" stroke="currentColor" stroke-linecap="round" stroke-linejoin="round"></path>
        <path d="M4 12L20 12" stroke="currentColor" stroke-linecap="round" stroke-linejoin="round"></path>
        <path d="M4 19L20 19" stroke="currentColor" stroke-linecap="round" stroke-linejoin="round"></path>
    </symbol>

    <!-- 유저 프로필 -->
    <symbol id="icon-user" viewBox="0 0 24 24">
        <path d="M17 8.5C17 5.73858 14.7614 3.5 12 3.5C9.23858 3.5 7 5.73858 7 8.5C7 11.2614 9.23858 13.5 12 13.5C14.7614 13.5 17 11.2614 17 8.5Z" stroke="currentColor" stroke-linecap="round" stroke-linejoin="round"></path>
        <path d="M19 20.5C19 16.634 15.866 13.5 12 13.5C8.13401 13.5 5 16.634 5 20.5" stroke="currentColor" stroke-linecap="round" stroke-linejoin="round"></path>
    </symbol>

    <!-- 드롭다운 화살표 -->
    <symbol id="icon-down" viewBox="0 0 24 24">
        <path d="M18 9.00005C18 9.00005 13.5811 15 12 15C10.4188 15 6 9 6 9" stroke="currentColor" stroke-linecap="round" stroke-linejoin="round"></path>
    </symbol>

    <!-- 전체 보관함 -->
    <symbol id="icon-inbox" viewBox="0 0 24 24">
        <path d="M2.5 12C2.5 7.52166 2.5 5.28249 3.89124 3.89124C5.28249 2.5 7.52166 2.5 12 2.5C16.4783 2.5 18.7175 2.5 20.1088 3.89124C21.5 5.28249 21.5 7.52166 21.5 12C21.5 16.4783 21.5 18.7175 20.1088 20.1088C18.7175 21.5 16.4783 21.5 12 21.5C7.52166 21.5 5.28249 21.5 3.89124 20.1088C2.5 18.7175 2.5 16.4783 2.5 12Z" stroke="currentColor" stroke-width="1.5" stroke-linecap="round" stroke-linejoin="round" />
        <path d="M21.5 13.5H16.5743C15.7322 13.5 15.0706 14.2036 14.6995 14.9472C14.2963 15.7551 13.4889 16.5 12 16.5C10.5111 16.5 9.70373 15.7551 9.30054 14.9472C8.92942 14.2036 8.26777 13.5 7.42566 13.5H2.5" stroke="currentColor" stroke-width="1.5" stroke-linejoin="round" />
    </symbol>

    <!-- 오늘 할 일 -->
    <symbol id="icon-calendar" viewBox="0 0 24 24">
        <path d="M16 2V6M8 2V6" stroke="currentColor" stroke-width="1.5" stroke-linecap="round" stroke-linejoin="round"></path>
        <path d="M13 4H11C7.22876 4 5.34315 4 4.17157 5.17157C3 6.34315 3 8.22876 3 12V14C3 17.7712 3 19.6569 4.17157 20.8284C5.34315 22 7.22876 22 11 22H13C16.7712 22 18.6569 22 19.8284 20.8284C21 19.6569 21 17.7712 21 14V12C21 8.22876 21 6.34315 19.8284 5.17157C18.6569 4 16.7712 4 13 4Z" stroke="currentColor" stroke-width="1.5" stroke-linecap="round" stroke-linejoin="round"></path>
        <path d="M3 10H21" stroke="currentColor" stroke-width="1.5" stroke-linecap="round" stroke-linejoin="round"></path>
    </symbol>

    <!-- 중요 -->
    <symbol id="icon-star" viewBox="0 0 24 24">
        <path d="M13.7276 3.44418L15.4874 6.99288C15.7274 7.48687 16.3673 7.9607 16.9073 8.05143L20.0969 8.58575C22.1367 8.92853 22.6167 10.4206 21.1468 11.8925L18.6671 14.3927C18.2471 14.8161 18.0172 15.6327 18.1471 16.2175L18.8571 19.3125C19.417 21.7623 18.1271 22.71 15.9774 21.4296L12.9877 19.6452C12.4478 19.3226 11.5579 19.3226 11.0079 19.6452L8.01827 21.4296C5.8785 22.71 4.57865 21.7522 5.13859 19.3125L5.84851 16.2175C5.97849 15.6327 5.74852 14.8161 5.32856 14.3927L2.84884 11.8925C1.389 10.4206 1.85895 8.92853 3.89872 8.58575L7.08837 8.05143C7.61831 7.9607 8.25824 7.48687 8.49821 6.99288L10.258 3.44418C11.2179 1.51861 12.7777 1.51861 13.7276 3.44418Z" stroke="currentColor" stroke-width="1.5" stroke-linecap="round" stroke-linejoin="round"></path>
    </symbol>

    <!-- 원형 체크 -->
    <symbol id="icon-checked-circle" viewBox="0 0 24 24">
        <path d="M15 2.4578C14.053 2.16035 13.0452 2 12 2C6.47715 2 2 6.47715 2 12C2 17.5228 6.47715 22 12 22C17.5228 22 22 17.5228 22 12C22 10.9548 21.8396 9.94704 21.5422 9" stroke="currentColor" stroke-width="1.5" stroke-linecap="round"></path>
        <path d="M8.5 9.5L12 13L21.0002 3" stroke="currentColor" stroke-width="1.5" stroke-linecap="round" stroke-linejoin="round"></path>
    </symbol>

    <!-- 해시태그 -->
    <symbol id="icon-hash" viewBox="0 0 24 24">
        <path d="M7 3V21" stroke="currentColor" stroke-width="1.5" stroke-linecap="round" stroke-linejoin="round"></path>
        <path d="M17 3V21" stroke="currentColor" stroke-width="1.5" stroke-linecap="round" stroke-linejoin="round"></path>
        <path d="M21 7L3 7" stroke="currentColor" stroke-width="1.5" stroke-linecap="round" stroke-linejoin="round"></path>
        <path d="M21 17L3 17" stroke="currentColor" stroke-width="1.5" stroke-linecap="round" stroke-linejoin="round"></path>
    </symbol>

    <!-- 플러스 -->
    <symbol id="icon-add" viewBox="0 0 24 24">
    <path d="M12.001 5.00003V19.002" stroke="currentColor" stroke-width="1.5" stroke-linecap="round" stroke-linejoin="round"></path>
    <path d="M19.002 12.002L4.99998 12.002" stroke="currentColor" stroke-width="1.5" stroke-linecap="round" stroke-linejoin="round"></path>
    </symbol>

    <!-- 체크 -->
    <symbol id="icon-check" viewBox="0 0 24 24">
    <path d="M5 14L8.5 17.5L19 6.5" stroke="currentColor" stroke-width="3" stroke-linecap="round" stroke-linejoin="round"></path>
    </symbol>

    <!-- 풀스크린 -->
    <symbol id="icon-maximize" viewBox="0 0 24 24">
        <path d="M2.5 12C2.5 7.52166 2.5 5.28249 3.89124 3.89124C5.28249 2.5 7.52166 2.5 12 2.5C16.4783 2.5 18.7175 2.5 20.1088 3.89124C21.5 5.28249 21.5 7.52166 21.5 12C21.5 16.4783 21.5 18.7175 20.1088 20.1088C18.7175 21.5 16.4783 21.5 12 21.5C7.52166 21.5 5.28249 21.5 3.89124 20.1088C2.5 18.7175 2.5 16.4783 2.5 12Z" stroke="currentColor" stroke-width="1.5" stroke-linecap="round" stroke-linejoin="round"></path>
    </symbol>

    <!-- 화면 작게 -->
    <symbol id="icon-maximize-2" viewBox="0 0 24 24">
       <path d="M16 2H12C9.17157 2 7.75736 2 6.87868 2.94627C6 3.89254 6 5.41554 6 8.46154V9.53846C6 12.5845 6 14.1075 6.87868 15.0537C7.75736 16 9.17157 16 12 16H16C18.8284 16 20.2426 16 21.1213 15.0537C22 14.1075 22 12.5845 22 9.53846V8.46154C22 5.41554 22 3.89254 21.1213 2.94627C20.2426 2 18.8284 2 16 2Z" stroke="currentColor" stroke-width="1.5"></path>
        <path d="M18 16.6082C17.9879 18.9537 17.8914 20.2239 17.123 21.0525C16.2442 22 14.8298 22 12.0011 22H8.00065C5.17192 22 3.75755 22 2.87878 21.0525C2 20.1049 2 18.5799 2 15.5298V14.4515C2 11.4014 2 9.87638 2.87878 8.92885C3.52015 8.2373 4.44682 8.05047 6.00043 8" stroke="currentColor" stroke-width="1.5"></path>
    </symbol>

    <!-- 최소화 -->
    <symbol id="icon-minimize" viewBox="0 0 24 24">
    <path d="M2.5 12L21.5002 12" stroke="currentColor" stroke-width="1.5" stroke-linecap="round" stroke-linejoin="round"></path>
    </symbol>

    <!-- 닫기 -->
    <symbol id="icon-close" viewBox="0 0 24 24">
        <path d="M18 6L6.00081 17.9992M17.9992 18L6 6.00085" stroke="currentColor" stroke-width="1.5" stroke-linecap="round" stroke-linejoin="round"></path>
    </symbol>

    <!-- 비밀번호 숨김 -->
    <symbol id="icon-hidden-eye" viewBox="0 0 24 24">
        <path d="M22 8C22 8 18 14 12 14C6 14 2 8 2 8" stroke="currentColor" stroke-width="1.5" stroke-linecap="round"></path>
        <path d="M15 13.5L16.5 16" stroke="currentColor" stroke-width="1.5" stroke-linecap="round" stroke-linejoin="round"></path>
        <path d="M20 11L22 13" stroke="currentColor" stroke-width="1.5" stroke-linecap="round" stroke-linejoin="round"></path>
        <path d="M2 13L4 11" stroke="currentColor" stroke-width="1.5" stroke-linecap="round" stroke-linejoin="round"></path>
        <path d="M9 13.5L7.5 16" stroke="currentColor" stroke-width="1.5" stroke-linecap="round" stroke-linejoin="round"></path>
    </symbol>

    <!-- 비밀번호 보기 -->
    <symbol id="icon-view-eye" viewBox="0 0 24 24">
        <path d="M21.544 11.045C21.848 11.4713 22 11.6845 22 12C22 12.3155 21.848 12.5287 21.544 12.955C20.1779 14.8706 16.6892 19 12 19C7.31078 19 3.8221 14.8706 2.45604 12.955C2.15201 12.5287 2 12.3155 2 12C2 11.6845 2.15201 11.4713 2.45604 11.045C3.8221 9.12944 7.31078 5 12 5C16.6892 5 20.1779 9.12944 21.544 11.045Z" stroke="currentColor" stroke-width="1.5"></path>
        <path d="M15 12C15 10.3431 13.6569 9 12 9C10.3431 9 9 10.3431 9 12C9 13.6569 10.3431 15 12 15C13.6569 15 15 13.6569 15 12Z" stroke="currentColor" stroke-width="1.5"></path>
    </symbol>

    <!-- 경고 -->
    <symbol id="icon-caution" viewBox="0 0 24 24">
        <path d="M13.9248 21H10.0752C5.44476 21 3.12955 21 2.27636 19.4939C1.42317 17.9879 2.60736 15.9914 4.97574 11.9985L6.90057 8.75333C9.17559 4.91778 10.3131 3 12 3C13.6869 3 14.8244 4.91777 17.0994 8.75332L19.0243 11.9985C21.3926 15.9914 22.5768 17.9879 21.7236 19.4939C20.8704 21 18.5552 21 13.9248 21Z" stroke="currentColor" stroke-width="1.2" stroke-linecap="round" stroke-linejoin="round"></path>
        <path d="M12 9V13.5" stroke="currentColor" stroke-width="1.5" stroke-linecap="round" stroke-linejoin="round"></path>
        <path d="M12 16.9922V17.0022" stroke="currentColor" stroke-width="1.5" stroke-linecap="round" stroke-linejoin="round"></path>
    </symbol>

    <!-- 다크모드 -->
    <symbol id="icon-dark-mode" viewBox="0 0 24 24">
    <path d="M21.5 14.0784C20.3003 14.7189 18.9301 15.0821 17.4751 15.0821C12.7491 15.0821 8.91792 11.2509 8.91792 6.52485C8.91792 5.06986 9.28105 3.69968 9.92163 2.5C5.66765 3.49698 2.5 7.31513 2.5 11.8731C2.5 17.1899 6.8101 21.5 12.1269 21.5C16.6849 21.5 20.503 18.3324 21.5 14.0784Z" stroke="currentColor" stroke-width="1.5" stroke-linecap="round" stroke-linejoin="round"></path>
   </symbol>

    <!-- 라이트모드 -->
    <symbol id="icon-light-mode" viewBox="0 0 24 24">
    <path d="M21.5 14.0784C20.3003 14.7189 18.9301 15.0821 17.4751 15.0821C12.7491 15.0821 8.91792 11.2509 8.91792 6.52485C8.91792 5.06986 9.28105 3.69968 9.92163 2.5C5.66765 3.49698 2.5 7.31513 2.5 11.8731C2.5 17.1899 6.8101 21.5 12.1269 21.5C16.6849 21.5 20.503 18.3324 21.5 14.0784Z" stroke="currentColor" stroke-width="1.5" fill="#000" stroke-linecap="round" stroke-linejoin="round"></path>
   </symbol>

</svg>