<svg xmlns="http://www.w3.org/2000/svg" style="display: none;">

    <!-- 사이드바 버튼 -->
    <symbol id="icon-menu" viewBox="0 0 24 24">
    <path d="M4 5L20 5" stroke="currentColor" stroke-linecap="round" stroke-linejoin="round"></path>
    <path d="M4 12L20 12" stroke="currentColor" stroke-linecap="round" stroke-linejoin="round"></path>
    <path d="M4 19L20 19" stroke="currentColor" stroke-linecap="round" stroke-linejoin="round"></path>
    </symbol>

    <!-- 유저 프로필 -->
    <symbol id="icon-user" viewBox="0 0 24 24">
    <path d="M17 8.5C17 5.73858 14.7614 3.5 12 3.5C9.23858 3.5 7 5.73858 7 8.5C7 11.2614 9.23858 13.5 12 13.5C14.7614 13.5 17 11.2614 17 8.5Z" stroke="currentColor" stroke-linecap="round" stroke-linejoin="round"></path>
    <path d="M19 20.5C19 16.634 15.866 13.5 12 13.5C8.13401 13.5 5 16.634 5 20.5" stroke="currentColor" stroke-linecap="round" stroke-linejoin="round"></path>
    </symbol>

    <!-- 드롭다운 화살표 -->
    <symbol id="icon-down" viewBox="0 0 24 24">
    <path d="M18 9.00005C18 9.00005 13.5811 15 12 15C10.4188 15 6 9 6 9" stroke="currentColor" stroke-linecap="round" stroke-linejoin="round"></path>
    </symbol>

</svg>