<svg width="26" height="26" viewBox="0 0 26 26" fill="none" xmlns="http://www.w3.org/2000/svg">
<path d="M25 14.8947H18.7781C17.7144 14.8947 16.8787 15.7835 16.4099 16.7228C15.9006 17.7433 14.8807 18.6842 13 18.6842C11.1193 18.6842 10.0994 17.7433 9.59016 16.7228C9.12137 15.7835 8.2856 14.8947 7.22189 14.8947H1M1 13C1 7.34315 1 4.51472 2.75736 2.75736C4.51472 1 7.34315 1 13 1C18.6568 1 21.4853 1 23.2427 2.75736C25 4.51472 25 7.34315 25 13C25 18.6568 25 21.4853 23.2427 23.2427C21.4853 25 18.6568 25 13 25C7.34315 25 4.51472 25 2.75736 23.2427C1 21.4853 1 18.6568 1 13Z" stroke="#141B34" stroke-width="2" stroke-linejoin="round"/>
</svg>
