<svg width="28" height="28" viewBox="0 0 28 28" fill="none" xmlns="http://www.w3.org/2000/svg">
<path d="M2.97658 4.87836L4.06714 5.48925L4.06715 5.48924L2.97658 4.87836ZM4.30269 3.22072L3.47942 2.28012L3.47942 2.28013L4.30269 3.22072ZM23.6973 3.22072L24.5206 2.28013L24.5206 2.2801L23.6973 3.22072ZM25.0234 4.87836L26.114 4.26748L26.114 4.26745L25.0234 4.87836ZM25.0234 23.1216L23.9329 22.5107L23.9329 22.5107L25.0234 23.1216ZM23.6973 24.7793L24.5205 25.72L24.5207 25.7198L23.6973 24.7793ZM4.30269 24.7793L3.47932 25.7198L3.47945 25.72L4.30269 24.7793ZM2.97658 23.1216L4.06717 22.5108L4.06713 22.5107L2.97658 23.1216ZM5.6 6.08333C4.90964 6.08333 4.35 6.64298 4.35 7.33333C4.35 8.02369 4.90964 8.58333 5.6 8.58333V7.33333V6.08333ZM6.8 8.58333C7.49036 8.58333 8.05 8.02369 8.05 7.33333C8.05 6.64298 7.49036 6.08333 6.8 6.08333V7.33333V8.58333ZM5.6 10.0833C4.90964 10.0833 4.35 10.643 4.35 11.3333C4.35 12.0237 4.90964 12.5833 5.6 12.5833V11.3333V10.0833ZM6.8 12.5833C7.49036 12.5833 8.05 12.0237 8.05 11.3333C8.05 10.643 7.49036 10.0833 6.8 10.0833V11.3333V12.5833ZM2 14H3.25C3.25 11.5189 3.25104 9.73625 3.36765 8.35341C3.4834 6.98084 3.70526 6.13527 4.06714 5.48925L2.97658 4.87836L1.88603 4.26747C1.27132 5.36482 1.0049 6.62066 0.876494 8.14335C0.748957 9.65577 0.75 11.5623 0.75 14H2ZM2.97658 4.87836L4.06715 5.48924C4.36424 4.95886 4.72528 4.51202 5.12597 4.16131L4.30269 3.22072L3.47942 2.28013C2.8481 2.8327 2.31152 3.50786 1.88602 4.26748L2.97658 4.87836ZM4.30269 3.22072L5.12596 4.16132C5.57257 3.77043 6.14583 3.52577 7.16199 3.39188C8.21968 3.25252 9.59884 3.25 11.6 3.25V2V0.75C9.66609 0.75 8.09394 0.74748 6.83542 0.913301C5.53537 1.08459 4.42752 1.45029 3.47942 2.28012L4.30269 3.22072ZM11.6 2V3.25H16.4V2V0.75H11.6V2ZM16.4 2V3.25C18.4011 3.25 19.7803 3.25252 20.838 3.39188C21.8541 3.52577 22.4274 3.77043 22.8741 4.16134L23.6973 3.22072L24.5206 2.2801C23.5725 1.45029 22.4646 1.08459 21.1646 0.913301C19.906 0.74748 18.3339 0.75 16.4 0.75V2ZM23.6973 3.22072L22.874 4.16131C23.2747 4.51202 23.6358 4.95886 23.9329 5.48927L25.0234 4.87836L26.114 4.26745C25.6885 3.50786 25.1519 2.8327 24.5206 2.28013L23.6973 3.22072ZM25.0234 4.87836L23.9329 5.48924C24.2948 6.13526 24.5166 6.98083 24.6324 8.35341C24.749 9.73625 24.75 11.5189 24.75 14H26H27.25C27.25 11.5623 27.251 9.65578 27.1235 8.14335C26.9951 6.62066 26.7287 5.36483 26.114 4.26748L25.0234 4.87836ZM26 14H24.75C24.75 16.4811 24.749 18.2637 24.6324 19.6466C24.5166 21.0192 24.2948 21.8647 23.9329 22.5107L25.0234 23.1216L26.114 23.7325C26.7287 22.6352 26.9951 21.3793 27.1235 19.8566C27.251 18.3442 27.25 16.4377 27.25 14H26ZM25.0234 23.1216L23.9329 22.5107C23.6358 23.0411 23.2747 23.488 22.8739 23.8388L23.6973 24.7793L24.5207 25.7198C25.1519 25.1672 25.6885 24.4922 26.114 23.7325L25.0234 23.1216ZM23.6973 24.7793L22.8741 23.8387C22.4274 24.2296 21.8542 24.4742 20.838 24.6081C19.7803 24.7475 18.4011 24.75 16.4 24.75V26V27.25C18.3339 27.25 19.906 27.2525 21.1645 27.0867C22.4646 26.9154 23.5724 26.5497 24.5205 25.72L23.6973 24.7793ZM16.4 26V24.75H11.6V26V27.25H16.4V26ZM11.6 26V24.75C9.59884 24.75 8.21968 24.7475 7.16199 24.6081C6.14582 24.4742 5.57255 24.2296 5.12594 23.8387L4.30269 24.7793L3.47945 25.72C4.42754 26.5497 5.53538 26.9154 6.83543 27.0867C8.09394 27.2525 9.66609 27.25 11.6 27.25V26ZM4.30269 24.7793L5.12606 23.8388C4.72526 23.4879 4.36422 23.0411 4.06717 22.5108L2.97658 23.1216L1.88599 23.7324C2.31154 24.4922 2.84812 25.1673 3.47932 25.7198L4.30269 24.7793ZM2.97658 23.1216L4.06713 22.5107C3.70526 21.8647 3.4834 21.0191 3.36765 19.6466C3.25104 18.2637 3.25 16.4811 3.25 14H2H0.75C0.75 16.4377 0.748957 18.3442 0.876494 19.8566C1.0049 21.3793 1.27132 22.6352 1.88604 23.7325L2.97658 23.1216ZM11 2H9.75V26H11H12.25V2H11ZM5.6 7.33333V8.58333H6.8V7.33333V6.08333H5.6V7.33333ZM5.6 11.3333V12.5833H6.8V11.3333V10.0833H5.6V11.3333Z" fill="#141B34"/>
</svg>
