<svg width="26" height="26" viewBox="0 0 26 26" fill="none" xmlns="http://www.w3.org/2000/svg">
<path d="M15.0731 2.73301L17.1849 6.99145C17.4729 7.58424 18.2407 8.15284 18.8887 8.26171L22.7163 8.9029C25.164 9.31423 25.74 11.1047 23.9761 12.871L21.0005 15.8712C20.4965 16.3793 20.2206 17.3592 20.3765 18.061L21.2285 21.775C21.9004 24.7148 20.3525 25.852 17.7729 24.3155L14.1852 22.1742C13.5374 21.7871 12.4695 21.7871 11.8095 22.1742L8.22192 24.3155C5.6542 25.852 4.09438 24.7026 4.7663 21.775L5.61821 18.061C5.77418 17.3592 5.49822 16.3793 4.99427 15.8712L2.01861 12.871C0.2668 11.1047 0.83074 9.31423 3.27846 8.9029L7.10604 8.26171C7.74197 8.15284 8.50988 7.58424 8.79785 6.99145L10.9096 2.73301C12.0615 0.422329 13.9332 0.422329 15.0731 2.73301Z" stroke="#141B34" stroke-width="2" stroke-linecap="round" stroke-linejoin="round"/>
</svg>
