<svg width="26" height="26" viewBox="0 0 26 26" fill="none" xmlns="http://www.w3.org/2000/svg">
<path d="M18.3333 1V5.8M7.66667 1V5.8M1 10.6H25M14.3333 3.4H11.6667C6.63835 3.4 4.1242 3.4 2.56209 4.80588C1 6.21178 1 8.47451 1 13V15.4C1 19.9254 1 22.1883 2.56209 23.5941C4.1242 25 6.63835 25 11.6667 25H14.3333C19.3616 25 21.8759 25 23.4379 23.5941C25 22.1883 25 19.9254 25 15.4V13C25 8.47451 25 6.21178 23.4379 4.80588C21.8759 3.4 19.3616 3.4 14.3333 3.4Z" stroke="#141B34" stroke-width="2" stroke-linecap="round" stroke-linejoin="round"/>
</svg>
